<?xml version="1.0" encoding="UTF-8" standalone="no"?>
<!DOCTYPE svg PUBLIC "-//W3C//DTD SVG 1.1//EN"
 "http://www.w3.org/Graphics/SVG/1.1/DTD/svg11.dtd">
<!-- Generated by graphviz version 2.47.3 (20210619.1520)
 -->
<!-- Title: dependencies Pages: 1 -->
<svg width="3780pt" height="247pt"
 viewBox="0.00 0.00 3780.00 246.80" xmlns="http://www.w3.org/2000/svg" xmlns:xlink="http://www.w3.org/1999/xlink">
<g id="graph0" class="graph" transform="scale(1 1) rotate(0) translate(4 242.8)">
<title>dependencies</title>
<polygon fill="white" stroke="transparent" points="-4,4 -4,-242.8 3776,-242.8 3776,4 -4,4"/>
<text text-anchor="middle" x="1886" y="-8.2" font-family="sans-serif" font-size="14.00">dependencies</text>
<g id="clust1" class="cluster">
<title>cluster_AppModule</title>
<polygon fill="none" stroke="black" stroke-dasharray="1,5" points="8,-32.8 8,-230.8 3764,-230.8 3764,-32.8 8,-32.8"/>
</g>
<g id="clust25" class="cluster">
<title>cluster_AppModule_imports</title>
<polygon fill="none" stroke="black" points="3466,-40.8 3466,-92.8 3756,-92.8 3756,-40.8 3466,-40.8"/>
</g>
<g id="clust27" class="cluster">
<title>cluster_AppModule_bootstrap</title>
<polygon fill="none" stroke="black" points="1914,-170.8 1914,-222.8 2038,-222.8 2038,-170.8 1914,-170.8"/>
</g>
<g id="clust2" class="cluster">
<title>cluster_AppModule_declarations</title>
<polygon fill="none" stroke="black" points="16,-40.8 16,-92.8 3458,-92.8 3458,-40.8 16,-40.8"/>
</g>
<!-- AboutUsComponent -->
<g id="node1" class="node">
<title>AboutUsComponent</title>
<polygon fill="#ffffb3" stroke="black" points="3449.88,-84.8 3318.12,-84.8 3318.12,-48.8 3449.88,-48.8 3449.88,-84.8"/>
<text text-anchor="middle" x="3384" y="-62.6" font-family="Times,serif" font-size="14.00">AboutUsComponent</text>
</g>
<!-- AppModule -->
<g id="node23" class="node">
<title>AppModule</title>
<polygon fill="#8dd3c7" stroke="black" points="2017.66,-149.8 2014.66,-153.8 1993.66,-153.8 1990.66,-149.8 1934.34,-149.8 1934.34,-113.8 2017.66,-113.8 2017.66,-149.8"/>
<text text-anchor="middle" x="1976" y="-127.6" font-family="Times,serif" font-size="14.00">AppModule</text>
</g>
<!-- AboutUsComponent&#45;&gt;AppModule -->
<g id="edge1" class="edge">
<title>AboutUsComponent&#45;&gt;AppModule</title>
<path fill="none" stroke="black" d="M3384,-85.09C3384,-107.01 3384,-140.8 3384,-140.8 3384,-140.8 2027.76,-140.8 2027.76,-140.8"/>
<polygon fill="black" stroke="black" points="2027.76,-137.3 2017.76,-140.8 2027.76,-144.3 2027.76,-137.3"/>
</g>
<!-- AppComponent -->
<g id="node2" class="node">
<title>AppComponent</title>
<polygon fill="#ffffb3" stroke="black" points="3299.94,-84.8 3194.06,-84.8 3194.06,-48.8 3299.94,-48.8 3299.94,-84.8"/>
<text text-anchor="middle" x="3247" y="-62.6" font-family="Times,serif" font-size="14.00">AppComponent</text>
</g>
<!-- AppComponent&#45;&gt;AppModule -->
<g id="edge2" class="edge">
<title>AppComponent&#45;&gt;AppModule</title>
<path fill="none" stroke="black" d="M3247,-85.08C3247,-106.12 3247,-137.8 3247,-137.8 3247,-137.8 2027.93,-137.8 2027.93,-137.8"/>
<polygon fill="black" stroke="black" points="2027.93,-134.3 2017.93,-137.8 2027.93,-141.3 2027.93,-134.3"/>
</g>
<!-- CookiesComponent -->
<g id="node3" class="node">
<title>CookiesComponent</title>
<polygon fill="#ffffb3" stroke="black" points="3176.72,-84.8 3049.28,-84.8 3049.28,-48.8 3176.72,-48.8 3176.72,-84.8"/>
<text text-anchor="middle" x="3113" y="-62.6" font-family="Times,serif" font-size="14.00">CookiesComponent</text>
</g>
<!-- CookiesComponent&#45;&gt;AppModule -->
<g id="edge3" class="edge">
<title>CookiesComponent&#45;&gt;AppModule</title>
<path fill="none" stroke="black" d="M3113,-85.02C3113,-105.17 3113,-134.8 3113,-134.8 3113,-134.8 2027.81,-134.8 2027.81,-134.8"/>
<polygon fill="black" stroke="black" points="2027.81,-131.3 2017.81,-134.8 2027.81,-138.3 2027.81,-131.3"/>
</g>
<!-- CreatePostComponent -->
<g id="node4" class="node">
<title>CreatePostComponent</title>
<polygon fill="#ffffb3" stroke="black" points="3030.98,-84.8 2889.02,-84.8 2889.02,-48.8 3030.98,-48.8 3030.98,-84.8"/>
<text text-anchor="middle" x="2960" y="-62.6" font-family="Times,serif" font-size="14.00">CreatePostComponent</text>
</g>
<!-- CreatePostComponent&#45;&gt;AppModule -->
<g id="edge4" class="edge">
<title>CreatePostComponent&#45;&gt;AppModule</title>
<path fill="none" stroke="black" d="M2960,-84.91C2960,-104.14 2960,-131.8 2960,-131.8 2960,-131.8 2027.97,-131.8 2027.97,-131.8"/>
<polygon fill="black" stroke="black" points="2027.97,-128.3 2017.97,-131.8 2027.97,-135.3 2027.97,-128.3"/>
</g>
<!-- CreateProductComponent -->
<g id="node5" class="node">
<title>CreateProductComponent</title>
<polygon fill="#ffffb3" stroke="black" points="2870.91,-84.8 2709.09,-84.8 2709.09,-48.8 2870.91,-48.8 2870.91,-84.8"/>
<text text-anchor="middle" x="2790" y="-62.6" font-family="Times,serif" font-size="14.00">CreateProductComponent</text>
</g>
<!-- CreateProductComponent&#45;&gt;AppModule -->
<g id="edge5" class="edge">
<title>CreateProductComponent&#45;&gt;AppModule</title>
<path fill="none" stroke="black" d="M2790,-85.07C2790,-103.36 2790,-128.8 2790,-128.8 2790,-128.8 2027.77,-128.8 2027.77,-128.8"/>
<polygon fill="black" stroke="black" points="2027.77,-125.3 2017.77,-128.8 2027.77,-132.3 2027.77,-125.3"/>
</g>
<!-- FooterComponent -->
<g id="node6" class="node">
<title>FooterComponent</title>
<polygon fill="#ffffb3" stroke="black" points="2690.88,-84.8 2573.12,-84.8 2573.12,-48.8 2690.88,-48.8 2690.88,-84.8"/>
<text text-anchor="middle" x="2632" y="-62.6" font-family="Times,serif" font-size="14.00">FooterComponent</text>
</g>
<!-- FooterComponent&#45;&gt;AppModule -->
<g id="edge6" class="edge">
<title>FooterComponent&#45;&gt;AppModule</title>
<path fill="none" stroke="black" d="M2632,-84.82C2632,-102.17 2632,-125.8 2632,-125.8 2632,-125.8 2027.78,-125.8 2027.78,-125.8"/>
<polygon fill="black" stroke="black" points="2027.78,-122.3 2017.78,-125.8 2027.78,-129.3 2027.78,-122.3"/>
</g>
<!-- HeaderComponent -->
<g id="node7" class="node">
<title>HeaderComponent</title>
<polygon fill="#ffffb3" stroke="black" points="2554.74,-84.8 2433.26,-84.8 2433.26,-48.8 2554.74,-48.8 2554.74,-84.8"/>
<text text-anchor="middle" x="2494" y="-62.6" font-family="Times,serif" font-size="14.00">HeaderComponent</text>
</g>
<!-- HeaderComponent&#45;&gt;AppModule -->
<g id="edge7" class="edge">
<title>HeaderComponent&#45;&gt;AppModule</title>
<path fill="none" stroke="black" d="M2494,-84.83C2494,-101.2 2494,-122.8 2494,-122.8 2494,-122.8 2027.95,-122.8 2027.95,-122.8"/>
<polygon fill="black" stroke="black" points="2027.95,-119.3 2017.95,-122.8 2027.95,-126.3 2027.95,-119.3"/>
</g>
<!-- HomeComponent -->
<g id="node8" class="node">
<title>HomeComponent</title>
<polygon fill="#ffffb3" stroke="black" points="2414.55,-84.8 2299.45,-84.8 2299.45,-48.8 2414.55,-48.8 2414.55,-84.8"/>
<text text-anchor="middle" x="2357" y="-62.6" font-family="Times,serif" font-size="14.00">HomeComponent</text>
</g>
<!-- HomeComponent&#45;&gt;AppModule -->
<g id="edge8" class="edge">
<title>HomeComponent&#45;&gt;AppModule</title>
<path fill="none" stroke="black" d="M2357,-85.04C2357,-100.37 2357,-119.8 2357,-119.8 2357,-119.8 2027.86,-119.8 2027.86,-119.8"/>
<polygon fill="black" stroke="black" points="2027.86,-116.3 2017.86,-119.8 2027.86,-123.3 2027.86,-116.3"/>
</g>
<!-- ListaPostagemComponent -->
<g id="node9" class="node">
<title>ListaPostagemComponent</title>
<polygon fill="#ffffb3" stroke="black" points="2280.76,-84.8 2117.24,-84.8 2117.24,-48.8 2280.76,-48.8 2280.76,-84.8"/>
<text text-anchor="middle" x="2199" y="-62.6" font-family="Times,serif" font-size="14.00">ListaPostagemComponent</text>
</g>
<!-- ListaPostagemComponent&#45;&gt;AppModule -->
<g id="edge9" class="edge">
<title>ListaPostagemComponent&#45;&gt;AppModule</title>
<path fill="none" stroke="black" d="M2199,-84.85C2199,-99.17 2199,-116.8 2199,-116.8 2199,-116.8 2027.68,-116.8 2027.68,-116.8"/>
<polygon fill="black" stroke="black" points="2027.68,-113.3 2017.68,-116.8 2027.68,-120.3 2027.68,-113.3"/>
</g>
<!-- LoginComponent -->
<g id="node10" class="node">
<title>LoginComponent</title>
<polygon fill="#ffffb3" stroke="black" points="2099.28,-84.8 1984.72,-84.8 1984.72,-48.8 2099.28,-48.8 2099.28,-84.8"/>
<text text-anchor="middle" x="2042" y="-62.6" font-family="Times,serif" font-size="14.00">LoginComponent</text>
</g>
<!-- LoginComponent&#45;&gt;AppModule -->
<g id="edge10" class="edge">
<title>LoginComponent&#45;&gt;AppModule</title>
<path fill="none" stroke="black" d="M2001.22,-84.91C2001.22,-84.91 2001.22,-103.79 2001.22,-103.79"/>
<polygon fill="black" stroke="black" points="1997.72,-103.79 2001.22,-113.79 2004.72,-103.79 1997.72,-103.79"/>
</g>
<!-- PerfilComponent -->
<g id="node11" class="node">
<title>PerfilComponent</title>
<polygon fill="#ffffb3" stroke="black" points="1966.43,-84.8 1853.57,-84.8 1853.57,-48.8 1966.43,-48.8 1966.43,-84.8"/>
<text text-anchor="middle" x="1910" y="-62.6" font-family="Times,serif" font-size="14.00">PerfilComponent</text>
</g>
<!-- PerfilComponent&#45;&gt;AppModule -->
<g id="edge11" class="edge">
<title>PerfilComponent&#45;&gt;AppModule</title>
<path fill="none" stroke="black" d="M1950.19,-84.91C1950.19,-84.91 1950.19,-103.79 1950.19,-103.79"/>
<polygon fill="black" stroke="black" points="1946.69,-103.79 1950.19,-113.79 1953.69,-103.79 1946.69,-103.79"/>
</g>
<!-- PostComponent -->
<g id="node12" class="node">
<title>PostComponent</title>
<polygon fill="#ffffb3" stroke="black" points="1835.95,-84.8 1730.05,-84.8 1730.05,-48.8 1835.95,-48.8 1835.95,-84.8"/>
<text text-anchor="middle" x="1783" y="-62.6" font-family="Times,serif" font-size="14.00">PostComponent</text>
</g>
<!-- PostComponent&#45;&gt;AppModule -->
<g id="edge12" class="edge">
<title>PostComponent&#45;&gt;AppModule</title>
<path fill="none" stroke="black" d="M1783,-84.85C1783,-99.17 1783,-116.8 1783,-116.8 1783,-116.8 1924.12,-116.8 1924.12,-116.8"/>
<polygon fill="black" stroke="black" points="1924.12,-120.3 1934.12,-116.8 1924.12,-113.3 1924.12,-120.3"/>
</g>
<!-- PostSelectedComponent -->
<g id="node13" class="node">
<title>PostSelectedComponent</title>
<polygon fill="#ffffb3" stroke="black" points="1712.37,-84.8 1559.63,-84.8 1559.63,-48.8 1712.37,-48.8 1712.37,-84.8"/>
<text text-anchor="middle" x="1636" y="-62.6" font-family="Times,serif" font-size="14.00">PostSelectedComponent</text>
</g>
<!-- PostSelectedComponent&#45;&gt;AppModule -->
<g id="edge13" class="edge">
<title>PostSelectedComponent&#45;&gt;AppModule</title>
<path fill="none" stroke="black" d="M1636,-85.04C1636,-100.37 1636,-119.8 1636,-119.8 1636,-119.8 1924.31,-119.8 1924.31,-119.8"/>
<polygon fill="black" stroke="black" points="1924.31,-123.3 1934.31,-119.8 1924.31,-116.3 1924.31,-123.3"/>
</g>
<!-- ProductComponent -->
<g id="node14" class="node">
<title>ProductComponent</title>
<polygon fill="#ffffb3" stroke="black" points="1541.38,-84.8 1416.62,-84.8 1416.62,-48.8 1541.38,-48.8 1541.38,-84.8"/>
<text text-anchor="middle" x="1479" y="-62.6" font-family="Times,serif" font-size="14.00">ProductComponent</text>
</g>
<!-- ProductComponent&#45;&gt;AppModule -->
<g id="edge14" class="edge">
<title>ProductComponent&#45;&gt;AppModule</title>
<path fill="none" stroke="black" d="M1479,-84.83C1479,-101.2 1479,-122.8 1479,-122.8 1479,-122.8 1924.05,-122.8 1924.05,-122.8"/>
<polygon fill="black" stroke="black" points="1924.05,-126.3 1934.05,-122.8 1924.05,-119.3 1924.05,-126.3"/>
</g>
<!-- ProductDetailComponent -->
<g id="node15" class="node">
<title>ProductDetailComponent</title>
<polygon fill="#ffffb3" stroke="black" points="1398.59,-84.8 1239.41,-84.8 1239.41,-48.8 1398.59,-48.8 1398.59,-84.8"/>
<text text-anchor="middle" x="1319" y="-62.6" font-family="Times,serif" font-size="14.00">ProductDetailComponent</text>
</g>
<!-- ProductDetailComponent&#45;&gt;AppModule -->
<g id="edge15" class="edge">
<title>ProductDetailComponent&#45;&gt;AppModule</title>
<path fill="none" stroke="black" d="M1319,-84.82C1319,-102.17 1319,-125.8 1319,-125.8 1319,-125.8 1924.15,-125.8 1924.15,-125.8"/>
<polygon fill="black" stroke="black" points="1924.15,-129.3 1934.15,-125.8 1924.15,-122.3 1924.15,-129.3"/>
</g>
<!-- ProductListComponent -->
<g id="node16" class="node">
<title>ProductListComponent</title>
<polygon fill="#ffffb3" stroke="black" points="1221.16,-84.8 1074.84,-84.8 1074.84,-48.8 1221.16,-48.8 1221.16,-84.8"/>
<text text-anchor="middle" x="1148" y="-62.6" font-family="Times,serif" font-size="14.00">ProductListComponent</text>
</g>
<!-- ProductListComponent&#45;&gt;AppModule -->
<g id="edge16" class="edge">
<title>ProductListComponent&#45;&gt;AppModule</title>
<path fill="none" stroke="black" d="M1148,-85.07C1148,-103.36 1148,-128.8 1148,-128.8 1148,-128.8 1924.09,-128.8 1924.09,-128.8"/>
<polygon fill="black" stroke="black" points="1924.09,-132.3 1934.09,-128.8 1924.09,-125.3 1924.09,-132.3"/>
</g>
<!-- ShoppingBillingComponent -->
<g id="node17" class="node">
<title>ShoppingBillingComponent</title>
<polygon fill="#ffffb3" stroke="black" points="1056.9,-84.8 883.1,-84.8 883.1,-48.8 1056.9,-48.8 1056.9,-84.8"/>
<text text-anchor="middle" x="970" y="-62.6" font-family="Times,serif" font-size="14.00">ShoppingBillingComponent</text>
</g>
<!-- ShoppingBillingComponent&#45;&gt;AppModule -->
<g id="edge17" class="edge">
<title>ShoppingBillingComponent&#45;&gt;AppModule</title>
<path fill="none" stroke="black" d="M970,-84.91C970,-104.14 970,-131.8 970,-131.8 970,-131.8 1924.05,-131.8 1924.05,-131.8"/>
<polygon fill="black" stroke="black" points="1924.05,-135.3 1934.05,-131.8 1924.05,-128.3 1924.05,-135.3"/>
</g>
<!-- ShoppingCartComponent -->
<g id="node18" class="node">
<title>ShoppingCartComponent</title>
<polygon fill="#ffffb3" stroke="black" points="864.61,-84.8 705.39,-84.8 705.39,-48.8 864.61,-48.8 864.61,-84.8"/>
<text text-anchor="middle" x="785" y="-62.6" font-family="Times,serif" font-size="14.00">ShoppingCartComponent</text>
</g>
<!-- ShoppingCartComponent&#45;&gt;AppModule -->
<g id="edge18" class="edge">
<title>ShoppingCartComponent&#45;&gt;AppModule</title>
<path fill="none" stroke="black" d="M785,-85.02C785,-105.17 785,-134.8 785,-134.8 785,-134.8 1924.31,-134.8 1924.31,-134.8"/>
<polygon fill="black" stroke="black" points="1924.31,-138.3 1934.31,-134.8 1924.31,-131.3 1924.31,-138.3"/>
</g>
<!-- ShoppingProductComponent -->
<g id="node19" class="node">
<title>ShoppingProductComponent</title>
<polygon fill="#ffffb3" stroke="black" points="687.05,-84.8 508.95,-84.8 508.95,-48.8 687.05,-48.8 687.05,-84.8"/>
<text text-anchor="middle" x="598" y="-62.6" font-family="Times,serif" font-size="14.00">ShoppingProductComponent</text>
</g>
<!-- ShoppingProductComponent&#45;&gt;AppModule -->
<g id="edge19" class="edge">
<title>ShoppingProductComponent&#45;&gt;AppModule</title>
<path fill="none" stroke="black" d="M598,-85.08C598,-106.12 598,-137.8 598,-137.8 598,-137.8 1924.01,-137.8 1924.01,-137.8"/>
<polygon fill="black" stroke="black" points="1924.01,-141.3 1934.01,-137.8 1924.01,-134.3 1924.01,-141.3"/>
</g>
<!-- SignInComponent -->
<g id="node20" class="node">
<title>SignInComponent</title>
<polygon fill="#ffffb3" stroke="black" points="490.17,-84.8 371.83,-84.8 371.83,-48.8 490.17,-48.8 490.17,-84.8"/>
<text text-anchor="middle" x="431" y="-62.6" font-family="Times,serif" font-size="14.00">SignInComponent</text>
</g>
<!-- SignInComponent&#45;&gt;AppModule -->
<g id="edge20" class="edge">
<title>SignInComponent&#45;&gt;AppModule</title>
<path fill="none" stroke="black" d="M431,-85.09C431,-107.01 431,-140.8 431,-140.8 431,-140.8 1924.28,-140.8 1924.28,-140.8"/>
<polygon fill="black" stroke="black" points="1924.28,-144.3 1934.28,-140.8 1924.28,-137.3 1924.28,-144.3"/>
</g>
<!-- UpdatePostComponent -->
<g id="node21" class="node">
<title>UpdatePostComponent</title>
<polygon fill="#ffffb3" stroke="black" points="353.88,-84.8 208.12,-84.8 208.12,-48.8 353.88,-48.8 353.88,-84.8"/>
<text text-anchor="middle" x="281" y="-62.6" font-family="Times,serif" font-size="14.00">UpdatePostComponent</text>
</g>
<!-- UpdatePostComponent&#45;&gt;AppModule -->
<g id="edge21" class="edge">
<title>UpdatePostComponent&#45;&gt;AppModule</title>
<path fill="none" stroke="black" d="M281,-85.05C281,-107.82 281,-143.8 281,-143.8 281,-143.8 1924.1,-143.8 1924.1,-143.8"/>
<polygon fill="black" stroke="black" points="1924.1,-147.3 1934.1,-143.8 1924.1,-140.3 1924.1,-147.3"/>
</g>
<!-- UpdateProductComponent -->
<g id="node22" class="node">
<title>UpdateProductComponent</title>
<polygon fill="#ffffb3" stroke="black" points="189.81,-84.8 24.19,-84.8 24.19,-48.8 189.81,-48.8 189.81,-84.8"/>
<text text-anchor="middle" x="107" y="-62.6" font-family="Times,serif" font-size="14.00">UpdateProductComponent</text>
</g>
<!-- UpdateProductComponent&#45;&gt;AppModule -->
<g id="edge22" class="edge">
<title>UpdateProductComponent&#45;&gt;AppModule</title>
<path fill="none" stroke="black" d="M107,-84.95C107,-108.56 107,-146.8 107,-146.8 107,-146.8 1924.34,-146.8 1924.34,-146.8"/>
<polygon fill="black" stroke="black" points="1924.34,-150.3 1934.34,-146.8 1924.34,-143.3 1924.34,-150.3"/>
</g>
<!-- AppComponent  -->
<g id="node26" class="node">
<title>AppComponent </title>
<polygon fill="#80b1d3" stroke="black" points="2030.44,-214.8 1921.56,-214.8 1921.56,-178.8 2030.44,-178.8 2030.44,-214.8"/>
<text text-anchor="middle" x="1976" y="-192.6" font-family="Times,serif" font-size="14.00">AppComponent </text>
</g>
<!-- AppModule&#45;&gt;AppComponent  -->
<g id="edge25" class="edge">
<title>AppModule&#45;&gt;AppComponent </title>
<path fill="none" stroke="black" stroke-dasharray="1,5" d="M1976,-149.91C1976,-149.91 1976,-168.79 1976,-168.79"/>
<polygon fill="black" stroke="black" points="1972.5,-168.79 1976,-178.79 1979.5,-168.79 1972.5,-168.79"/>
</g>
<!-- AppRoutingModule -->
<g id="node24" class="node">
<title>AppRoutingModule</title>
<polygon fill="#8dd3c7" stroke="black" points="3748.27,-84.8 3745.27,-88.8 3724.27,-88.8 3721.27,-84.8 3619.73,-84.8 3619.73,-48.8 3748.27,-48.8 3748.27,-84.8"/>
<text text-anchor="middle" x="3684" y="-62.6" font-family="Times,serif" font-size="14.00">AppRoutingModule</text>
</g>
<!-- AppRoutingModule&#45;&gt;AppModule -->
<g id="edge23" class="edge">
<title>AppRoutingModule&#45;&gt;AppModule</title>
<path fill="none" stroke="black" d="M3684,-84.95C3684,-108.56 3684,-146.8 3684,-146.8 3684,-146.8 2027.8,-146.8 2027.8,-146.8"/>
<polygon fill="black" stroke="black" points="2027.8,-143.3 2017.8,-146.8 2027.8,-150.3 2027.8,-143.3"/>
</g>
<!-- IvyCarouselModule -->
<g id="node25" class="node">
<title>IvyCarouselModule</title>
<polygon fill="#8dd3c7" stroke="black" points="3601.97,-84.8 3598.97,-88.8 3577.97,-88.8 3574.97,-84.8 3474.03,-84.8 3474.03,-48.8 3601.97,-48.8 3601.97,-84.8"/>
<text text-anchor="middle" x="3538" y="-62.6" font-family="Times,serif" font-size="14.00">IvyCarouselModule</text>
</g>
<!-- IvyCarouselModule&#45;&gt;AppModule -->
<g id="edge24" class="edge">
<title>IvyCarouselModule&#45;&gt;AppModule</title>
<path fill="none" stroke="black" d="M3538,-85.05C3538,-107.82 3538,-143.8 3538,-143.8 3538,-143.8 2027.78,-143.8 2027.78,-143.8"/>
<polygon fill="black" stroke="black" points="2027.78,-140.3 2017.78,-143.8 2027.78,-147.3 2027.78,-140.3"/>
</g>
</g>
</svg>
