<?xml version="1.0" encoding="UTF-8" standalone="no"?>
<!DOCTYPE svg PUBLIC "-//W3C//DTD SVG 1.1//EN"
 "http://www.w3.org/Graphics/SVG/1.1/DTD/svg11.dtd">
<!-- Generated by graphviz version 2.47.3 (20210619.1520)
 -->
<!-- Title: dependencies Pages: 1 -->
<svg width="190pt" height="247pt"
 viewBox="0.00 0.00 190.00 246.80" xmlns="http://www.w3.org/2000/svg" xmlns:xlink="http://www.w3.org/1999/xlink">
<g id="graph0" class="graph" transform="scale(1 1) rotate(0) translate(4 242.8)">
<title>dependencies</title>
<polygon fill="white" stroke="transparent" points="-4,4 -4,-242.8 186,-242.8 186,4 -4,4"/>
<text text-anchor="middle" x="91" y="-8.2" font-family="sans-serif" font-size="14.00">dependencies</text>
<g id="clust1" class="cluster">
<title>cluster_IvyCarouselModule</title>
<polygon fill="none" stroke="black" stroke-dasharray="1,5" points="8,-32.8 8,-230.8 174,-230.8 174,-32.8 8,-32.8"/>
</g>
<g id="clust2" class="cluster">
<title>cluster_IvyCarouselModule_declarations</title>
<polygon fill="none" stroke="black" points="17,-40.8 17,-92.8 165,-92.8 165,-40.8 17,-40.8"/>
</g>
<g id="clust5" class="cluster">
<title>cluster_IvyCarouselModule_exports</title>
<polygon fill="none" stroke="black" points="16,-170.8 16,-222.8 166,-222.8 166,-170.8 16,-170.8"/>
</g>
<!-- CarouselComponent -->
<g id="node1" class="node">
<title>CarouselComponent</title>
<polygon fill="#ffffb3" stroke="black" points="156.59,-84.8 25.41,-84.8 25.41,-48.8 156.59,-48.8 156.59,-84.8"/>
<text text-anchor="middle" x="91" y="-62.6" font-family="Times,serif" font-size="14.00">CarouselComponent</text>
</g>
<!-- IvyCarouselModule -->
<g id="node2" class="node">
<title>IvyCarouselModule</title>
<polygon fill="#8dd3c7" stroke="black" points="154.97,-149.8 151.97,-153.8 130.97,-153.8 127.97,-149.8 27.03,-149.8 27.03,-113.8 154.97,-113.8 154.97,-149.8"/>
<text text-anchor="middle" x="91" y="-127.6" font-family="Times,serif" font-size="14.00">IvyCarouselModule</text>
</g>
<!-- CarouselComponent&#45;&gt;IvyCarouselModule -->
<g id="edge1" class="edge">
<title>CarouselComponent&#45;&gt;IvyCarouselModule</title>
<path fill="none" stroke="black" d="M91,-84.91C91,-84.91 91,-103.79 91,-103.79"/>
<polygon fill="black" stroke="black" points="87.5,-103.79 91,-113.79 94.5,-103.79 87.5,-103.79"/>
</g>
<!-- CarouselComponent  -->
<g id="node3" class="node">
<title>CarouselComponent </title>
<polygon fill="#fb8072" stroke="black" points="158.09,-214.8 23.91,-214.8 23.91,-178.8 158.09,-178.8 158.09,-214.8"/>
<text text-anchor="middle" x="91" y="-192.6" font-family="Times,serif" font-size="14.00">CarouselComponent </text>
</g>
<!-- IvyCarouselModule&#45;&gt;CarouselComponent  -->
<g id="edge2" class="edge">
<title>IvyCarouselModule&#45;&gt;CarouselComponent </title>
<path fill="none" stroke="black" stroke-dasharray="5,2" d="M91,-149.91C91,-149.91 91,-168.79 91,-168.79"/>
<polygon fill="black" stroke="black" points="87.5,-168.79 91,-178.79 94.5,-168.79 87.5,-168.79"/>
</g>
</g>
</svg>
