<?xml version="1.0" encoding="UTF-8" standalone="no"?>
<!DOCTYPE svg PUBLIC "-//W3C//DTD SVG 1.1//EN"
 "http://www.w3.org/Graphics/SVG/1.1/DTD/svg11.dtd">
<!-- Generated by graphviz version 2.47.3 (20210619.1520)
 -->
<!-- Title: dependencies Pages: 1 -->
<svg width="4110pt" height="253pt"
 viewBox="0.00 0.00 4110.00 252.80" xmlns="http://www.w3.org/2000/svg" xmlns:xlink="http://www.w3.org/1999/xlink">
<g id="graph0" class="graph" transform="scale(1 1) rotate(0) translate(4 248.8)">
<title>dependencies</title>
<polygon fill="white" stroke="transparent" points="-4,4 -4,-248.8 4106,-248.8 4106,4 -4,4"/>
<text text-anchor="middle" x="2051" y="-8.2" font-family="sans-serif" font-size="14.00">dependencies</text>
<g id="clust1" class="cluster">
<title>cluster_AppModule</title>
<polygon fill="none" stroke="black" stroke-dasharray="1,5" points="8,-32.8 8,-236.8 3764,-236.8 3764,-32.8 8,-32.8"/>
</g>
<g id="clust2" class="cluster">
<title>cluster_AppModule_declarations</title>
<polygon fill="none" stroke="black" points="16,-40.8 16,-92.8 3458,-92.8 3458,-40.8 16,-40.8"/>
</g>
<g id="clust25" class="cluster">
<title>cluster_AppModule_imports</title>
<polygon fill="none" stroke="black" points="3466,-40.8 3466,-92.8 3756,-92.8 3756,-40.8 3466,-40.8"/>
</g>
<g id="clust27" class="cluster">
<title>cluster_AppModule_bootstrap</title>
<polygon fill="none" stroke="black" points="1914,-176.8 1914,-228.8 2038,-228.8 2038,-176.8 1914,-176.8"/>
</g>
<g id="clust35" class="cluster">
<title>cluster_IvyCarouselModule</title>
<polygon fill="none" stroke="black" stroke-dasharray="1,5" points="3772,-100.8 3772,-168.8 4094,-168.8 4094,-100.8 3772,-100.8"/>
</g>
<g id="clust36" class="cluster">
<title>cluster_IvyCarouselModule_declarations</title>
<polygon fill="none" stroke="black" points="3938,-108.8 3938,-160.8 4086,-160.8 4086,-108.8 3938,-108.8"/>
</g>
<g id="clust39" class="cluster">
<title>cluster_IvyCarouselModule_exports</title>
<polygon fill="none" stroke="black" points="3780,-108.8 3780,-160.8 3930,-160.8 3930,-108.8 3780,-108.8"/>
</g>
<!-- AboutUsComponent -->
<g id="node1" class="node">
<title>AboutUsComponent</title>
<polygon fill="#ffffb3" stroke="black" points="3449.88,-84.8 3318.12,-84.8 3318.12,-48.8 3449.88,-48.8 3449.88,-84.8"/>
<text text-anchor="middle" x="3384" y="-62.6" font-family="Times,serif" font-size="14.00">AboutUsComponent</text>
</g>
<!-- AppModule -->
<g id="node23" class="node">
<title>AppModule</title>
<polygon fill="#8dd3c7" stroke="black" points="2017.66,-152.8 2014.66,-156.8 1993.66,-156.8 1990.66,-152.8 1934.34,-152.8 1934.34,-116.8 2017.66,-116.8 2017.66,-152.8"/>
<text text-anchor="middle" x="1976" y="-130.6" font-family="Times,serif" font-size="14.00">AppModule</text>
</g>
<!-- AboutUsComponent&#45;&gt;AppModule -->
<g id="edge1" class="edge">
<title>AboutUsComponent&#45;&gt;AppModule</title>
<path fill="none" stroke="black" d="M3384,-84.96C3384,-107.15 3384,-141.8 3384,-141.8 3384,-141.8 2027.76,-141.8 2027.76,-141.8"/>
<polygon fill="black" stroke="black" points="2027.76,-138.3 2017.76,-141.8 2027.76,-145.3 2027.76,-138.3"/>
</g>
<!-- AppComponent -->
<g id="node2" class="node">
<title>AppComponent</title>
<polygon fill="#ffffb3" stroke="black" points="3299.94,-84.8 3194.06,-84.8 3194.06,-48.8 3299.94,-48.8 3299.94,-84.8"/>
<text text-anchor="middle" x="3247" y="-62.6" font-family="Times,serif" font-size="14.00">AppComponent</text>
</g>
<!-- AppComponent&#45;&gt;AppModule -->
<g id="edge2" class="edge">
<title>AppComponent&#45;&gt;AppModule</title>
<path fill="none" stroke="black" d="M3247,-84.84C3247,-106.46 3247,-139.8 3247,-139.8 3247,-139.8 2027.93,-139.8 2027.93,-139.8"/>
<polygon fill="black" stroke="black" points="2027.93,-136.3 2017.93,-139.8 2027.93,-143.3 2027.93,-136.3"/>
</g>
<!-- CookiesComponent -->
<g id="node3" class="node">
<title>CookiesComponent</title>
<polygon fill="#ffffb3" stroke="black" points="3176.72,-84.8 3049.28,-84.8 3049.28,-48.8 3176.72,-48.8 3176.72,-84.8"/>
<text text-anchor="middle" x="3113" y="-62.6" font-family="Times,serif" font-size="14.00">CookiesComponent</text>
</g>
<!-- CookiesComponent&#45;&gt;AppModule -->
<g id="edge3" class="edge">
<title>CookiesComponent&#45;&gt;AppModule</title>
<path fill="none" stroke="black" d="M3113,-84.83C3113,-105.57 3113,-136.8 3113,-136.8 3113,-136.8 2027.81,-136.8 2027.81,-136.8"/>
<polygon fill="black" stroke="black" points="2027.81,-133.3 2017.81,-136.8 2027.81,-140.3 2027.81,-133.3"/>
</g>
<!-- CreatePostComponent -->
<g id="node4" class="node">
<title>CreatePostComponent</title>
<polygon fill="#ffffb3" stroke="black" points="3030.98,-84.8 2889.02,-84.8 2889.02,-48.8 3030.98,-48.8 3030.98,-84.8"/>
<text text-anchor="middle" x="2960" y="-62.6" font-family="Times,serif" font-size="14.00">CreatePostComponent</text>
</g>
<!-- CreatePostComponent&#45;&gt;AppModule -->
<g id="edge4" class="edge">
<title>CreatePostComponent&#45;&gt;AppModule</title>
<path fill="none" stroke="black" d="M2960,-85.11C2960,-104.95 2960,-133.8 2960,-133.8 2960,-133.8 2027.97,-133.8 2027.97,-133.8"/>
<polygon fill="black" stroke="black" points="2027.97,-130.3 2017.97,-133.8 2027.97,-137.3 2027.97,-130.3"/>
</g>
<!-- CreateProductComponent -->
<g id="node5" class="node">
<title>CreateProductComponent</title>
<polygon fill="#ffffb3" stroke="black" points="2870.91,-84.8 2709.09,-84.8 2709.09,-48.8 2870.91,-48.8 2870.91,-84.8"/>
<text text-anchor="middle" x="2790" y="-62.6" font-family="Times,serif" font-size="14.00">CreateProductComponent</text>
</g>
<!-- CreateProductComponent&#45;&gt;AppModule -->
<g id="edge5" class="edge">
<title>CreateProductComponent&#45;&gt;AppModule</title>
<path fill="none" stroke="black" d="M2790,-84.97C2790,-103.89 2790,-130.8 2790,-130.8 2790,-130.8 2027.77,-130.8 2027.77,-130.8"/>
<polygon fill="black" stroke="black" points="2027.77,-127.3 2017.77,-130.8 2027.77,-134.3 2027.77,-127.3"/>
</g>
<!-- FooterComponent -->
<g id="node6" class="node">
<title>FooterComponent</title>
<polygon fill="#ffffb3" stroke="black" points="2690.88,-84.8 2573.12,-84.8 2573.12,-48.8 2690.88,-48.8 2690.88,-84.8"/>
<text text-anchor="middle" x="2632" y="-62.6" font-family="Times,serif" font-size="14.00">FooterComponent</text>
</g>
<!-- FooterComponent&#45;&gt;AppModule -->
<g id="edge6" class="edge">
<title>FooterComponent&#45;&gt;AppModule</title>
<path fill="none" stroke="black" d="M2632,-85.07C2632,-103.36 2632,-128.8 2632,-128.8 2632,-128.8 2027.78,-128.8 2027.78,-128.8"/>
<polygon fill="black" stroke="black" points="2027.78,-125.3 2017.78,-128.8 2027.78,-132.3 2027.78,-125.3"/>
</g>
<!-- HeaderComponent -->
<g id="node7" class="node">
<title>HeaderComponent</title>
<polygon fill="#ffffb3" stroke="black" points="2554.74,-84.8 2433.26,-84.8 2433.26,-48.8 2554.74,-48.8 2554.74,-84.8"/>
<text text-anchor="middle" x="2494" y="-62.6" font-family="Times,serif" font-size="14.00">HeaderComponent</text>
</g>
<!-- HeaderComponent&#45;&gt;AppModule -->
<g id="edge7" class="edge">
<title>HeaderComponent&#45;&gt;AppModule</title>
<path fill="none" stroke="black" d="M2494,-84.82C2494,-102.17 2494,-125.8 2494,-125.8 2494,-125.8 2027.95,-125.8 2027.95,-125.8"/>
<polygon fill="black" stroke="black" points="2027.95,-122.3 2017.95,-125.8 2027.95,-129.3 2027.95,-122.3"/>
</g>
<!-- HomeComponent -->
<g id="node8" class="node">
<title>HomeComponent</title>
<polygon fill="#ffffb3" stroke="black" points="2414.55,-84.8 2299.45,-84.8 2299.45,-48.8 2414.55,-48.8 2414.55,-84.8"/>
<text text-anchor="middle" x="2357" y="-62.6" font-family="Times,serif" font-size="14.00">HomeComponent</text>
</g>
<!-- HomeComponent&#45;&gt;AppModule -->
<g id="edge8" class="edge">
<title>HomeComponent&#45;&gt;AppModule</title>
<path fill="none" stroke="black" d="M2357,-84.83C2357,-101.2 2357,-122.8 2357,-122.8 2357,-122.8 2027.86,-122.8 2027.86,-122.8"/>
<polygon fill="black" stroke="black" points="2027.86,-119.3 2017.86,-122.8 2027.86,-126.3 2027.86,-119.3"/>
</g>
<!-- ListaPostagemComponent -->
<g id="node9" class="node">
<title>ListaPostagemComponent</title>
<polygon fill="#ffffb3" stroke="black" points="2280.76,-84.8 2117.24,-84.8 2117.24,-48.8 2280.76,-48.8 2280.76,-84.8"/>
<text text-anchor="middle" x="2199" y="-62.6" font-family="Times,serif" font-size="14.00">ListaPostagemComponent</text>
</g>
<!-- ListaPostagemComponent&#45;&gt;AppModule -->
<g id="edge9" class="edge">
<title>ListaPostagemComponent&#45;&gt;AppModule</title>
<path fill="none" stroke="black" d="M2199,-85.04C2199,-100.37 2199,-119.8 2199,-119.8 2199,-119.8 2027.68,-119.8 2027.68,-119.8"/>
<polygon fill="black" stroke="black" points="2027.68,-116.3 2017.68,-119.8 2027.68,-123.3 2027.68,-116.3"/>
</g>
<!-- LoginComponent -->
<g id="node10" class="node">
<title>LoginComponent</title>
<polygon fill="#ffffb3" stroke="black" points="2099.28,-84.8 1984.72,-84.8 1984.72,-48.8 2099.28,-48.8 2099.28,-84.8"/>
<text text-anchor="middle" x="2042" y="-62.6" font-family="Times,serif" font-size="14.00">LoginComponent</text>
</g>
<!-- LoginComponent&#45;&gt;AppModule -->
<g id="edge10" class="edge">
<title>LoginComponent&#45;&gt;AppModule</title>
<path fill="none" stroke="black" d="M2001.22,-85.02C2001.22,-85.02 2001.22,-106.53 2001.22,-106.53"/>
<polygon fill="black" stroke="black" points="1997.72,-106.53 2001.22,-116.53 2004.72,-106.53 1997.72,-106.53"/>
</g>
<!-- PerfilComponent -->
<g id="node11" class="node">
<title>PerfilComponent</title>
<polygon fill="#ffffb3" stroke="black" points="1966.43,-84.8 1853.57,-84.8 1853.57,-48.8 1966.43,-48.8 1966.43,-84.8"/>
<text text-anchor="middle" x="1910" y="-62.6" font-family="Times,serif" font-size="14.00">PerfilComponent</text>
</g>
<!-- PerfilComponent&#45;&gt;AppModule -->
<g id="edge11" class="edge">
<title>PerfilComponent&#45;&gt;AppModule</title>
<path fill="none" stroke="black" d="M1950.19,-85.02C1950.19,-85.02 1950.19,-106.53 1950.19,-106.53"/>
<polygon fill="black" stroke="black" points="1946.69,-106.53 1950.19,-116.53 1953.69,-106.53 1946.69,-106.53"/>
</g>
<!-- PostComponent -->
<g id="node12" class="node">
<title>PostComponent</title>
<polygon fill="#ffffb3" stroke="black" points="1835.95,-84.8 1730.05,-84.8 1730.05,-48.8 1835.95,-48.8 1835.95,-84.8"/>
<text text-anchor="middle" x="1783" y="-62.6" font-family="Times,serif" font-size="14.00">PostComponent</text>
</g>
<!-- PostComponent&#45;&gt;AppModule -->
<g id="edge12" class="edge">
<title>PostComponent&#45;&gt;AppModule</title>
<path fill="none" stroke="black" d="M1783,-85.04C1783,-100.37 1783,-119.8 1783,-119.8 1783,-119.8 1924.12,-119.8 1924.12,-119.8"/>
<polygon fill="black" stroke="black" points="1924.12,-123.3 1934.12,-119.8 1924.12,-116.3 1924.12,-123.3"/>
</g>
<!-- PostSelectedComponent -->
<g id="node13" class="node">
<title>PostSelectedComponent</title>
<polygon fill="#ffffb3" stroke="black" points="1712.37,-84.8 1559.63,-84.8 1559.63,-48.8 1712.37,-48.8 1712.37,-84.8"/>
<text text-anchor="middle" x="1636" y="-62.6" font-family="Times,serif" font-size="14.00">PostSelectedComponent</text>
</g>
<!-- PostSelectedComponent&#45;&gt;AppModule -->
<g id="edge13" class="edge">
<title>PostSelectedComponent&#45;&gt;AppModule</title>
<path fill="none" stroke="black" d="M1636,-84.83C1636,-101.2 1636,-122.8 1636,-122.8 1636,-122.8 1924.31,-122.8 1924.31,-122.8"/>
<polygon fill="black" stroke="black" points="1924.31,-126.3 1934.31,-122.8 1924.31,-119.3 1924.31,-126.3"/>
</g>
<!-- ProductComponent -->
<g id="node14" class="node">
<title>ProductComponent</title>
<polygon fill="#ffffb3" stroke="black" points="1541.38,-84.8 1416.62,-84.8 1416.62,-48.8 1541.38,-48.8 1541.38,-84.8"/>
<text text-anchor="middle" x="1479" y="-62.6" font-family="Times,serif" font-size="14.00">ProductComponent</text>
</g>
<!-- ProductComponent&#45;&gt;AppModule -->
<g id="edge14" class="edge">
<title>ProductComponent&#45;&gt;AppModule</title>
<path fill="none" stroke="black" d="M1479,-84.82C1479,-102.17 1479,-125.8 1479,-125.8 1479,-125.8 1924.05,-125.8 1924.05,-125.8"/>
<polygon fill="black" stroke="black" points="1924.05,-129.3 1934.05,-125.8 1924.05,-122.3 1924.05,-129.3"/>
</g>
<!-- ProductDetailComponent -->
<g id="node15" class="node">
<title>ProductDetailComponent</title>
<polygon fill="#ffffb3" stroke="black" points="1398.59,-84.8 1239.41,-84.8 1239.41,-48.8 1398.59,-48.8 1398.59,-84.8"/>
<text text-anchor="middle" x="1319" y="-62.6" font-family="Times,serif" font-size="14.00">ProductDetailComponent</text>
</g>
<!-- ProductDetailComponent&#45;&gt;AppModule -->
<g id="edge15" class="edge">
<title>ProductDetailComponent&#45;&gt;AppModule</title>
<path fill="none" stroke="black" d="M1319,-85.07C1319,-103.36 1319,-128.8 1319,-128.8 1319,-128.8 1924.15,-128.8 1924.15,-128.8"/>
<polygon fill="black" stroke="black" points="1924.15,-132.3 1934.15,-128.8 1924.15,-125.3 1924.15,-132.3"/>
</g>
<!-- ProductListComponent -->
<g id="node16" class="node">
<title>ProductListComponent</title>
<polygon fill="#ffffb3" stroke="black" points="1221.16,-84.8 1074.84,-84.8 1074.84,-48.8 1221.16,-48.8 1221.16,-84.8"/>
<text text-anchor="middle" x="1148" y="-62.6" font-family="Times,serif" font-size="14.00">ProductListComponent</text>
</g>
<!-- ProductListComponent&#45;&gt;AppModule -->
<g id="edge16" class="edge">
<title>ProductListComponent&#45;&gt;AppModule</title>
<path fill="none" stroke="black" d="M1148,-84.91C1148,-104.14 1148,-131.8 1148,-131.8 1148,-131.8 1924.09,-131.8 1924.09,-131.8"/>
<polygon fill="black" stroke="black" points="1924.09,-135.3 1934.09,-131.8 1924.09,-128.3 1924.09,-135.3"/>
</g>
<!-- ShoppingBillingComponent -->
<g id="node17" class="node">
<title>ShoppingBillingComponent</title>
<polygon fill="#ffffb3" stroke="black" points="1056.9,-84.8 883.1,-84.8 883.1,-48.8 1056.9,-48.8 1056.9,-84.8"/>
<text text-anchor="middle" x="970" y="-62.6" font-family="Times,serif" font-size="14.00">ShoppingBillingComponent</text>
</g>
<!-- ShoppingBillingComponent&#45;&gt;AppModule -->
<g id="edge17" class="edge">
<title>ShoppingBillingComponent&#45;&gt;AppModule</title>
<path fill="none" stroke="black" d="M970,-85.02C970,-105.17 970,-134.8 970,-134.8 970,-134.8 1924.05,-134.8 1924.05,-134.8"/>
<polygon fill="black" stroke="black" points="1924.05,-138.3 1934.05,-134.8 1924.05,-131.3 1924.05,-138.3"/>
</g>
<!-- ShoppingCartComponent -->
<g id="node18" class="node">
<title>ShoppingCartComponent</title>
<polygon fill="#ffffb3" stroke="black" points="864.61,-84.8 705.39,-84.8 705.39,-48.8 864.61,-48.8 864.61,-84.8"/>
<text text-anchor="middle" x="785" y="-62.6" font-family="Times,serif" font-size="14.00">ShoppingCartComponent</text>
</g>
<!-- ShoppingCartComponent&#45;&gt;AppModule -->
<g id="edge18" class="edge">
<title>ShoppingCartComponent&#45;&gt;AppModule</title>
<path fill="none" stroke="black" d="M785,-85.08C785,-106.12 785,-137.8 785,-137.8 785,-137.8 1924.31,-137.8 1924.31,-137.8"/>
<polygon fill="black" stroke="black" points="1924.31,-141.3 1934.31,-137.8 1924.31,-134.3 1924.31,-141.3"/>
</g>
<!-- ShoppingProductComponent -->
<g id="node19" class="node">
<title>ShoppingProductComponent</title>
<polygon fill="#ffffb3" stroke="black" points="687.05,-84.8 508.95,-84.8 508.95,-48.8 687.05,-48.8 687.05,-84.8"/>
<text text-anchor="middle" x="598" y="-62.6" font-family="Times,serif" font-size="14.00">ShoppingProductComponent</text>
</g>
<!-- ShoppingProductComponent&#45;&gt;AppModule -->
<g id="edge19" class="edge">
<title>ShoppingProductComponent&#45;&gt;AppModule</title>
<path fill="none" stroke="black" d="M598,-85.09C598,-107.01 598,-140.8 598,-140.8 598,-140.8 1924.01,-140.8 1924.01,-140.8"/>
<polygon fill="black" stroke="black" points="1924.01,-144.3 1934.01,-140.8 1924.01,-137.3 1924.01,-144.3"/>
</g>
<!-- SignInComponent -->
<g id="node20" class="node">
<title>SignInComponent</title>
<polygon fill="#ffffb3" stroke="black" points="490.17,-84.8 371.83,-84.8 371.83,-48.8 490.17,-48.8 490.17,-84.8"/>
<text text-anchor="middle" x="431" y="-62.6" font-family="Times,serif" font-size="14.00">SignInComponent</text>
</g>
<!-- SignInComponent&#45;&gt;AppModule -->
<g id="edge20" class="edge">
<title>SignInComponent&#45;&gt;AppModule</title>
<path fill="none" stroke="black" d="M431,-85.05C431,-107.82 431,-143.8 431,-143.8 431,-143.8 1924.28,-143.8 1924.28,-143.8"/>
<polygon fill="black" stroke="black" points="1924.28,-147.3 1934.28,-143.8 1924.28,-140.3 1924.28,-147.3"/>
</g>
<!-- UpdatePostComponent -->
<g id="node21" class="node">
<title>UpdatePostComponent</title>
<polygon fill="#ffffb3" stroke="black" points="353.88,-84.8 208.12,-84.8 208.12,-48.8 353.88,-48.8 353.88,-84.8"/>
<text text-anchor="middle" x="281" y="-62.6" font-family="Times,serif" font-size="14.00">UpdatePostComponent</text>
</g>
<!-- UpdatePostComponent&#45;&gt;AppModule -->
<g id="edge21" class="edge">
<title>UpdatePostComponent&#45;&gt;AppModule</title>
<path fill="none" stroke="black" d="M281,-84.95C281,-108.56 281,-146.8 281,-146.8 281,-146.8 1924.1,-146.8 1924.1,-146.8"/>
<polygon fill="black" stroke="black" points="1924.1,-150.3 1934.1,-146.8 1924.1,-143.3 1924.1,-150.3"/>
</g>
<!-- UpdateProductComponent -->
<g id="node22" class="node">
<title>UpdateProductComponent</title>
<polygon fill="#ffffb3" stroke="black" points="189.81,-84.8 24.19,-84.8 24.19,-48.8 189.81,-48.8 189.81,-84.8"/>
<text text-anchor="middle" x="107" y="-62.6" font-family="Times,serif" font-size="14.00">UpdateProductComponent</text>
</g>
<!-- UpdateProductComponent&#45;&gt;AppModule -->
<g id="edge22" class="edge">
<title>UpdateProductComponent&#45;&gt;AppModule</title>
<path fill="none" stroke="black" d="M107,-84.81C107,-109.22 107,-149.8 107,-149.8 107,-149.8 1924.34,-149.8 1924.34,-149.8"/>
<polygon fill="black" stroke="black" points="1924.34,-153.3 1934.34,-149.8 1924.34,-146.3 1924.34,-153.3"/>
</g>
<!-- AppComponent  -->
<g id="node26" class="node">
<title>AppComponent </title>
<polygon fill="#80b1d3" stroke="black" points="2030.44,-220.8 1921.56,-220.8 1921.56,-184.8 2030.44,-184.8 2030.44,-220.8"/>
<text text-anchor="middle" x="1976" y="-198.6" font-family="Times,serif" font-size="14.00">AppComponent </text>
</g>
<!-- AppModule&#45;&gt;AppComponent  -->
<g id="edge25" class="edge">
<title>AppModule&#45;&gt;AppComponent </title>
<path fill="none" stroke="black" stroke-dasharray="1,5" d="M1976,-153.02C1976,-153.02 1976,-174.53 1976,-174.53"/>
<polygon fill="black" stroke="black" points="1972.5,-174.53 1976,-184.53 1979.5,-174.53 1972.5,-174.53"/>
</g>
<!-- AppRoutingModule -->
<g id="node24" class="node">
<title>AppRoutingModule</title>
<polygon fill="#8dd3c7" stroke="black" points="3602.27,-84.8 3599.27,-88.8 3578.27,-88.8 3575.27,-84.8 3473.73,-84.8 3473.73,-48.8 3602.27,-48.8 3602.27,-84.8"/>
<text text-anchor="middle" x="3538" y="-62.6" font-family="Times,serif" font-size="14.00">AppRoutingModule</text>
</g>
<!-- AppRoutingModule&#45;&gt;AppModule -->
<g id="edge23" class="edge">
<title>AppRoutingModule&#45;&gt;AppModule</title>
<path fill="none" stroke="black" d="M3538,-84.89C3538,-107.93 3538,-144.8 3538,-144.8 3538,-144.8 2027.78,-144.8 2027.78,-144.8"/>
<polygon fill="black" stroke="black" points="2027.78,-141.3 2017.78,-144.8 2027.78,-148.3 2027.78,-141.3"/>
</g>
<!-- IvyCarouselModule -->
<g id="node25" class="node">
<title>IvyCarouselModule</title>
<polygon fill="#8dd3c7" stroke="black" points="3747.97,-84.8 3744.97,-88.8 3723.97,-88.8 3720.97,-84.8 3620.03,-84.8 3620.03,-48.8 3747.97,-48.8 3747.97,-84.8"/>
<text text-anchor="middle" x="3684" y="-62.6" font-family="Times,serif" font-size="14.00">IvyCarouselModule</text>
</g>
<!-- IvyCarouselModule&#45;&gt;AppModule -->
<g id="edge24" class="edge">
<title>IvyCarouselModule&#45;&gt;AppModule</title>
<path fill="none" stroke="black" d="M3662.67,-85.18C3662.67,-109.08 3662.67,-147.8 3662.67,-147.8 3662.67,-147.8 2027.69,-147.8 2027.69,-147.8"/>
<polygon fill="black" stroke="black" points="2027.69,-144.3 2017.69,-147.8 2027.69,-151.3 2027.69,-144.3"/>
</g>
<!-- CarouselComponent  -->
<g id="node28" class="node">
<title>CarouselComponent </title>
<polygon fill="#fb8072" stroke="black" points="3922.09,-152.8 3787.91,-152.8 3787.91,-116.8 3922.09,-116.8 3922.09,-152.8"/>
<text text-anchor="middle" x="3855" y="-130.6" font-family="Times,serif" font-size="14.00">CarouselComponent </text>
</g>
<!-- IvyCarouselModule&#45;&gt;CarouselComponent  -->
<g id="edge27" class="edge">
<title>IvyCarouselModule&#45;&gt;CarouselComponent </title>
<path fill="none" stroke="black" stroke-dasharray="5,2" d="M3705.33,-85.03C3705.33,-109.73 3705.33,-150.8 3705.33,-150.8 3705.33,-150.8 3777.61,-150.8 3777.61,-150.8"/>
<polygon fill="black" stroke="black" points="3777.61,-154.3 3787.61,-150.8 3777.61,-147.3 3777.61,-154.3"/>
</g>
<!-- CarouselComponent -->
<g id="node27" class="node">
<title>CarouselComponent</title>
<polygon fill="#ffffb3" stroke="black" points="4077.59,-152.8 3946.41,-152.8 3946.41,-116.8 4077.59,-116.8 4077.59,-152.8"/>
<text text-anchor="middle" x="4012" y="-130.6" font-family="Times,serif" font-size="14.00">CarouselComponent</text>
</g>
<!-- CarouselComponent&#45;&gt;IvyCarouselModule -->
<g id="edge26" class="edge">
<title>CarouselComponent&#45;&gt;IvyCarouselModule</title>
<path fill="none" stroke="black" d="M4012,-116.58C4012,-96.43 4012,-66.8 4012,-66.8 4012,-66.8 3758.02,-66.8 3758.02,-66.8"/>
<polygon fill="black" stroke="black" points="3758.02,-63.3 3748.02,-66.8 3758.02,-70.3 3758.02,-63.3"/>
</g>
</g>
</svg>
